<?xml version="1.0" encoding="utf-8"?>
<!-- Generator: Adobe Illustrator 25.2.2, SVG Export Plug-In . SVG Version: 6.00 Build 0)  -->
<svg version="1.1" id="Layer_1" xmlns="http://www.w3.org/2000/svg" xmlns:xlink="http://www.w3.org/1999/xlink" x="0px" y="0px"
	 viewBox="0 0 938.7 500" style="enable-background:new 0 0 938.7 500;" xml:space="preserve">
<style type="text/css">
	.st0{fill:none;stroke:#DEDBEB;stroke-width:61;stroke-miterlimit:10;}
	.st1{fill:#DEDBEB;stroke:#DEDBEB;stroke-width:4;stroke-miterlimit:10;}
	.st2{fill:none;stroke:#DEDBEB;stroke-width:49;stroke-miterlimit:10;}
</style>
<g id="XMLID_1_">
	<g>
	</g>
	<g>
		<path class="st0" d="M254.6,300.8l-134.2,1c-10.7,0.1-16.3-15.3-9-24.9l122.1-161.7c7.9-10.5,22.2-1.4,22.1,12.7L254.6,300.8z"/>
		<line class="st0" x1="331.8" y1="300.2" x2="254.6" y2="300.8"/>
	</g>
</g>
<path class="st1" d="M229.2,378.2l-0.2-49.6l23.3-0.2c18.5-0.1,33.6,13.1,33.7,29.4l0.1,20L229.2,378.2z"/>
<g id="XMLID_2_">
	<g>
	</g>
	<g>
		<path class="st0" d="M687.3,302.7l-62.1-119c-5-9.5,6.1-21.5,18-19.4l199.6,35c12.9,2.3,11.4,19.1-1.2,25.5L687.3,302.7z"/>
		<line class="st0" x1="723" y1="371.1" x2="687.3" y2="302.7"/>
	</g>
</g>
<path class="st1" d="M606.9,315.4l44.1-22.8l10.8,20.7c8.5,16.4,3.7,35.9-10.8,43.3l-17.8,9.2L606.9,315.4z"/>
<path class="st2" d="M448.4,364.4L448.4,364.4c-45.3,0-82-36.7-82-82v-75c0-45.3,36.7-82,82-82h0c45.3,0,82,36.7,82,82v75
	C530.4,327.7,493.7,364.4,448.4,364.4z"/>
</svg>
