<?xml version="1.0" encoding="utf-8"?>
<!-- Generator: Adobe Illustrator 25.2.3, SVG Export Plug-In . SVG Version: 6.00 Build 0)  -->
<svg version="1.1" id="Layer_1" xmlns="http://www.w3.org/2000/svg" xmlns:xlink="http://www.w3.org/1999/xlink" x="0px" y="0px"
	 viewBox="0 0 614.3 578.7" style="enable-background:new 0 0 614.3 578.7;" xml:space="preserve">
<style type="text/css">
	.st0{display:none;}
	.st1{display:inline;fill:#E4E5E7;}
	.st2{fill:#AB8A08;}
	.st3{fill:#BA9D44;}
	.st4{fill:#CAB37A;}
	.st5{fill:#D6C9A8;}
</style>
<g id="background" class="st0">
	<rect x="-95.7" y="-100.7" class="st1" width="800" height="800"/>
</g>
<g id="column4">
	<path class="st2" d="M410.2,410.3l81-0.1c-0.1-24.1-17.8-39.7-40.6-40.1C432,369.7,410.2,385.7,410.2,410.3z"/>
	<path class="st2" d="M491.1,412.5l-81,0.5c0.1,24.1,18,39.7,40.7,40C469.5,453.2,491.3,437,491.1,412.5z"/>
	<path class="st2" d="M447.7,277.9l-2.3-77.4c-25.2,0.6-41,18-40.8,39.8C404.7,258.1,422.1,278.5,447.7,277.9z"/>
	<path class="st2" d="M448.2,200.2l2,78.8c25.9-0.6,42.2-18.2,42.2-40.4C492.4,220.4,474.6,199.6,448.2,200.2z"/>
	<path class="st2" d="M487.6,287.2l0.7,83.6c-23.4,0.2-38.6-17.9-39.2-41.5C448.5,310.1,463.8,287.4,487.6,287.2z"/>
	<path class="st2" d="M407.4,287.9l-0.1,83.6c23.4,0.1,38.5-18.2,39-41.7C446.7,310.5,431.2,287.9,407.4,287.9z"/>
	<path class="st2" d="M489,192.3l-81,0.7c-0.2-24.1,17.4-39.9,40.1-40.6C466.8,151.9,488.7,167.8,489,192.3z"/>
	<path class="st2" d="M489,110l-81-0.2c-0.1,24.1,17.7,39.8,40.4,40.3C467,150.5,488.9,134.5,489,110z"/>
</g>
<g id="column3">
	<path class="st3" d="M311.5,374.1l-0.1,83.6c23.4,0.1,38.5-18.2,39-41.7C350.8,396.8,335.3,374.1,311.5,374.1z"/>
	<path class="st3" d="M307.9,288.2l82.3-0.3c-0.1-24.8-18.2-40.8-41.3-41.3C330,246.3,307.8,262.9,307.9,288.2z"/>
	<path class="st3" d="M392.7,334.7l-81,0.7c0.2,24.1,18,39.6,40.8,39.9C371.2,375.6,393,359.4,392.7,334.7z"/>
	<path class="st3" d="M311.6,332.8l82.3-0.5c-0.1-24.8-18.2-40.8-41.4-41.1C333.6,290.9,311.5,307.5,311.6,332.8z"/>
	<path class="st3" d="M390,204.6l-80.9,0.9c0.2,24.1,18.1,39.6,40.8,39.8C368.6,245.4,390.3,229.1,390,204.6z"/>
	<path class="st3" d="M391.5,196.3v-85.1c-24.1,0-39.5,18.6-40,42.6C351.1,173.3,367.1,196.3,391.5,196.3z"/>
	<path class="st3" d="M310,111.9l0.5,83.6c23.4-0.1,38.4-18.6,38.7-42.1C349.4,134.3,333.7,111.8,310,111.9z"/>
	<path class="st3" d="M391.1,373.6l0.7,83.6c-23.4,0.2-38.6-17.9-39.2-41.5C352,396.5,367.4,373.8,391.1,373.6z"/>
</g>
<g id="column2">
	<path class="st4" d="M293.4,245.3l-81,0.3c0.1,24.1,17.8,39.7,40.6,40.1C271.6,286,293.4,269.8,293.4,245.3z"/>
	<path class="st4" d="M212.2,242.8h82.3c0-24.8-18-40.8-41.1-41.4C234.5,201.1,212.2,217.6,212.2,242.8z"/>
	<path class="st4" d="M255.1,374.2l1.1,77.4c25.2-0.3,41.3-17.5,41.5-39.2C297.8,394.6,280.7,373.9,255.1,374.2z"/>
	<path class="st4" d="M253.4,451.9l-0.9-78.8c-25.9,0.2-42.5,17.6-42.8,39.8C209.5,431,227,452.2,253.4,451.9z"/>
	<path class="st4" d="M294.2,193.4l-81,0.7c-0.2-24.1,17.4-39.9,40.1-40.6C271.9,153,294,168.8,294.2,193.4z"/>
	<path class="st4" d="M295.5,111l-81-0.2c-0.1,24.1,17.7,39.8,40.4,40.3C273.5,151.6,295.4,135.6,295.5,111z"/>
	<path class="st4" d="M293,287.9l0.7,83.6c-23.4,0.2-38.6-17.9-39.2-41.5C253.9,310.8,269.2,288.1,293,287.9z"/>
	<path class="st4" d="M213.3,287.9l-0.1,83.6c23.4,0.1,38.5-18.2,39-41.7C252.5,310.6,237.1,288,213.3,287.9z"/>
</g>
<g id="column1">
	<path class="st5" d="M153.6,281.4v-83.6c-23.4,0-38.4,18.3-39,41.8C114.3,258.8,129.8,281.4,153.6,281.4z"/>
	<path class="st5" d="M157.6,197.8l-0.4,83.6c23.4,0.1,38.5-18.2,39.1-41.7C196.8,220.5,181.3,197.8,157.6,197.8z"/>
	<path class="st5" d="M114.8,110.8l0.2,83.6c23.4-0.1,38.4-18.4,38.8-41.9C154.2,133.3,138.6,110.7,114.8,110.8z"/>
	<path class="st5" d="M196.1,194l0.1-85.1c-24.1-0.1-39.6,18.5-40.1,42.4C155.8,170.9,171.7,193.9,196.1,194z"/>
	<path class="st5" d="M195.9,414.6l-80.9,0.1c0,24.1,17.7,39.7,40.5,40.2C174.1,455.3,196,439.2,195.9,414.6z"/>
	<path class="st5" d="M115,411.2l81,0.3c0.1-24.1-17.6-39.8-40.3-40.3C137,370.6,115.1,386.6,115,411.2z"/>
	<path class="st5" d="M197.4,284.9l-81-0.2c-0.1,24.1,17.7,39.8,40.4,40.3C175.4,325.4,197.3,309.4,197.4,284.9z"/>
	<path class="st5" d="M196,367.2l-81,0.7c-0.2-24.1,17.4-39.9,40.1-40.6C173.8,326.7,195.8,342.7,196,367.2z"/>
</g>
</svg>
