<?xml version="1.0" encoding="utf-8"?>
<!-- Generator: Adobe Illustrator 25.2.3, SVG Export Plug-In . SVG Version: 6.00 Build 0)  -->
<svg version="1.1" id="Layer_1" xmlns="http://www.w3.org/2000/svg" xmlns:xlink="http://www.w3.org/1999/xlink" x="0px" y="0px"
	 viewBox="0 0 614.3 578.7" style="enable-background:new 0 0 614.3 578.7;" xml:space="preserve">
<style type="text/css">
	.st0{display:none;}
	.st1{display:inline;fill:#E4E5E7;}
	.st2{fill:#AB8A08;}
	.st3{fill:#BA9D44;}
	.st4{fill:#CAB37A;}
	.st5{fill:#D6C9A8;}
</style>
<g id="background" class="st0">
	<rect x="-95.7" y="-100.7" class="st1" width="800" height="800"/>
</g>
<g id="column4">
	<path class="st2" d="M445.7,445.9l104.8-0.2c-0.2-31.6-23-52.1-52.5-52.7C474,392.6,445.7,413.6,445.7,445.9z"/>
	<path class="st2" d="M550.4,448.8l-104.8,0.6c0.2,31.6,23.3,52.1,52.7,52.5C522.5,502.3,550.7,481,550.4,448.8z"/>
	<path class="st2" d="M494.3,272l-3-101.6c-32.6,0.8-53,23.6-52.8,52.3C438.6,246.1,461.1,272.8,494.3,272z"/>
	<path class="st2" d="M495,170l2.6,103.5c33.5-0.8,54.6-23.9,54.6-53.1C552.1,196.6,529.1,169.2,495,170z"/>
	<path class="st2" d="M545.9,284.3l0.9,109.8c-30.2,0.2-49.9-23.5-50.8-54.5C495.3,314.3,515.1,284.5,545.9,284.3z"/>
	<path class="st2" d="M442.1,285.2l-0.2,109.8c30.2,0.2,49.8-23.9,50.4-54.8C493,314.9,472.9,285.2,442.1,285.2z"/>
	<path class="st2" d="M547.7,159.6l-104.8,1c-0.2-31.6,22.5-52.4,51.9-53.3C519,106.6,547.3,127.4,547.7,159.6z"/>
	<path class="st2" d="M547.7,51.6l-104.8-0.2c-0.2,31.6,22.9,52.3,52.3,52.9C519.3,104.7,547.6,83.7,547.7,51.6z"/>
</g>
<g id="column3">
	<path class="st3" d="M318,398.4l-0.2,109.8c30.2,0.2,49.8-23.9,50.4-54.8C368.9,428.2,348.8,398.4,318,398.4z"/>
	<path class="st3" d="M313.3,285.6l106.5-0.4c-0.2-32.6-23.5-53.5-53.4-54.3C342,230.5,313.2,252.4,313.3,285.6z"/>
	<path class="st3" d="M423.1,346.6l-104.8,0.9c0.2,31.6,23.3,52,52.8,52.4C395.3,400.3,423.5,379,423.1,346.6z"/>
	<path class="st3" d="M318.1,344.1l106.5-0.6c-0.2-32.6-23.5-53.5-53.6-53.9C346.6,289.1,318,310.9,318.1,344.1z"/>
	<path class="st3" d="M419.6,175.7L315,177c0.2,31.6,23.4,52,52.8,52.3C391.9,229.4,420,207.9,419.6,175.7z"/>
	<path class="st3" d="M421.6,164.9V53.1c-31.2,0-51.1,24.4-51.7,56C369.3,134.7,390,164.9,421.6,164.9z"/>
	<path class="st3" d="M316.1,54.1l0.6,109.8c30.2-0.2,49.7-24.4,50.1-55.3C367.1,83.5,346.7,53.9,316.1,54.1z"/>
	<path class="st3" d="M421,397.7l0.9,109.8c-30.2,0.2-49.9-23.5-50.8-54.5C370.4,427.8,390.4,398,421,397.7z"/>
</g>
<g id="column2">
	<path class="st4" d="M294.6,229.2l-104.8,0.4c0.2,31.6,23,52.1,52.5,52.7C266.4,282.7,294.6,261.4,294.6,229.2z"/>
	<path class="st4" d="M189.5,225.9h106.5c0-32.6-23.3-53.5-53.2-54.4C218.4,171.2,189.5,192.8,189.5,225.9z"/>
	<path class="st4" d="M245.1,398.5l1.5,101.6c32.6-0.4,53.4-23,53.7-51.4C300.3,425.3,278.1,398.1,245.1,398.5z"/>
	<path class="st4" d="M242.8,500.6l-1.1-103.5c-33.5,0.2-55,23.1-55.4,52.3C186,473.1,208.7,500.9,242.8,500.6z"/>
	<path class="st4" d="M295.7,161.1L190.8,162c-0.2-31.6,22.5-52.4,51.9-53.3C266.8,108,295.3,128.7,295.7,161.1z"/>
	<path class="st4" d="M297.3,52.8l-104.8-0.2c-0.2,31.6,22.9,52.3,52.3,52.9C268.8,106.2,297.2,85.2,297.3,52.8z"/>
	<path class="st4" d="M294,285.2l0.9,109.8c-30.2,0.2-49.9-23.5-50.8-54.5C243.4,315.3,263.3,285.4,294,285.2z"/>
	<path class="st4" d="M190.9,285.2l-0.2,109.8c30.2,0.2,49.8-23.9,50.4-54.8C241.7,315,221.7,285.3,190.9,285.2z"/>
</g>
<g id="column1">
	<path class="st5" d="M113.7,276.6V166.9c-30.3,0-49.7,24-50.5,54.8C62.8,247,82.9,276.6,113.7,276.6z"/>
	<path class="st5" d="M118.8,166.9l-0.5,109.8c30.2,0.2,49.8-23.9,50.6-54.8C169.6,196.6,149.5,166.9,118.8,166.9z"/>
	<path class="st5" d="M63.4,52.6l0.2,109.8c30.2-0.2,49.7-24.2,50.2-55C114.4,82.1,94.2,52.4,63.4,52.6z"/>
	<path class="st5" d="M168.7,161.9l0.1-111.8c-31.1-0.2-51.2,24.3-51.9,55.6C116.5,131.6,137.1,161.7,168.7,161.9z"/>
	<path class="st5" d="M168.4,451.5l-104.8,0.2c0,31.6,22.9,52.1,52.4,52.8C140.2,505,168.5,483.9,168.4,451.5z"/>
	<path class="st5" d="M63.7,447.1l104.8,0.4c0.2-31.6-22.8-52.3-52.1-52.9C92.2,393.8,63.8,414.8,63.7,447.1z"/>
	<path class="st5" d="M170.4,281.2L65.5,281c-0.2,31.6,22.9,52.3,52.3,52.9C141.8,334.5,170.2,313.4,170.4,281.2z"/>
	<path class="st5" d="M168.5,389.3l-104.8,1c-0.2-31.6,22.5-52.4,51.9-53.3C139.8,336.1,168.3,357.1,168.5,389.3z"/>
</g>
</svg>
