<?xml version="1.0" encoding="utf-8"?>
<!-- Generator: Adobe Illustrator 25.2.3, SVG Export Plug-In . SVG Version: 6.00 Build 0)  -->
<svg version="1.1" xmlns="http://www.w3.org/2000/svg" xmlns:xlink="http://www.w3.org/1999/xlink" x="0px" y="0px"
	 viewBox="0 0 614.3 578.7" style="enable-background:new 0 0 614.3 578.7;" xml:space="preserve">
<style type="text/css">
	.st0{display:none;}
	.st1{display:inline;fill:#E4E5E7;}
	.st2{fill:#AB8A08;}
	.st3{fill:#BA9D44;}
	.st4{fill:#CAB37A;}
	.st5{fill:#D6C9A8;}
</style>
<g id="background" class="st0">
	<rect x="-95.7" y="-100.7" class="st1" width="800" height="800"/>
</g>
<g id="column4">
	<path class="st2" d="M454.5,475.6l111.4-0.2c-0.1-34.7-24.5-57.1-55.8-57.7C484.5,417.2,454.4,440.3,454.5,475.6z"/>
	<path class="st2" d="M565.8,478.7l-111.4,0.7c0.2,34.7,24.7,57,56,57.5C536.1,537.3,566,514,565.8,478.7z"/>
	<path class="st2" d="M506.1,285.3L502.9,174c-34.7,0.9-56.4,25.9-56.2,57.2C446.8,256.8,470.8,286.2,506.1,285.3z"/>
	<path class="st2" d="M506.7,173.6l2.8,113.3c35.7-0.9,58.1-26.2,58-58.1C567.5,202.7,543.1,172.7,506.7,173.6z"/>
	<path class="st2" d="M560.9,298.6l0.9,120.2c-32.2,0.3-53.1-25.8-54-59.6C507.1,331.6,528.2,298.9,560.9,298.6z"/>
	<path class="st2" d="M450.6,299.6l-0.2,120.2c32.2,0.1,53-26.2,53.7-60C504.6,332.2,483.3,299.7,450.6,299.6z"/>
	<path class="st2" d="M562.8,162.3l-111.4,1c-0.3-34.7,23.9-57.4,55.2-58.3C532.3,104.2,562.5,127,562.8,162.3z"/>
	<path class="st2" d="M562.8,43.9l-111.4-0.3c-0.1,34.7,24.3,57.2,55.6,58C532.6,102.2,562.7,79.2,562.8,43.9z"/>
</g>
<g id="column3">
	<path class="st3" d="M318.6,423.5l-0.2,120.2c32.2,0.1,53-26.2,53.7-60C372.7,456.2,351.4,423.6,318.6,423.5z"/>
	<path class="st3" d="M313.7,300.1l113.3-0.4c-0.1-35.7-25-58.7-56.8-59.3C344.1,239.9,313.6,263.7,313.7,300.1z"/>
	<path class="st3" d="M430.4,367l-111.4,1c0.3,34.7,24.8,56.9,56.1,57.3C400.8,425.7,430.7,402.4,430.4,367z"/>
	<path class="st3" d="M318.8,364.2l113.3-0.7c-0.2-35.7-25.1-58.6-56.9-59.1C349.1,304,318.6,327.9,318.8,364.2z"/>
	<path class="st3" d="M426.7,179.9l-111.3,1.3c0.3,34.7,24.9,56.9,56.2,57.2C397.2,238.6,427,215.2,426.7,179.9z"/>
	<path class="st3" d="M428.7,168l0-122.3c-33.1,0-54.4,26.8-55.1,61.2C373.1,134.9,395.1,168,428.7,168z"/>
	<path class="st3" d="M316.5,46.7l0.7,120.2c32.2-0.2,52.8-26.7,53.2-60.5C370.8,78.8,349.2,46.5,316.5,46.7z"/>
	<path class="st3" d="M428.2,422.9l0.9,120.2c-32.2,0.3-53.1-25.8-54-59.6C374.4,455.8,395.5,423.2,428.2,422.9z"/>
</g>
<g id="column2">
	<path class="st4" d="M293.7,238.4l-111.4,0.4c0.1,34.7,24.5,57.1,55.8,57.7C263.7,296.9,293.7,273.7,293.7,238.4z"/>
	<path class="st4" d="M182,234.9l113.3,0c0-35.7-24.7-58.7-56.6-59.5C212.7,174.9,182,198.6,182,234.9z"/>
	<path class="st4" d="M241,423.7l1.5,111.3c34.7-0.4,56.8-25.1,57.1-56.4C299.8,453.1,276.3,423.3,241,423.7z"/>
	<path class="st4" d="M238.7,535.4l-1.2-113.3c-35.7,0.3-58.5,25.3-58.9,57.2C178.3,505.4,202.3,535.8,238.7,535.4z"/>
	<path class="st4" d="M294.8,163.8l-111.4,1c-0.3-34.7,23.9-57.4,55.2-58.3C264.2,105.7,294.5,128.5,294.8,163.8z"/>
	<path class="st4" d="M296.6,45.4l-111.4-0.3c-0.1,34.7,24.3,57.2,55.6,58C266.4,103.8,296.5,80.8,296.6,45.4z"/>
	<path class="st4" d="M293.1,299.7l0.9,120.2c-32.2,0.3-53.1-25.8-54-59.6C239.3,332.6,260.4,300,293.1,299.7z"/>
	<path class="st4" d="M183.5,299.7l-0.2,120.2c32.2,0.1,53-26.2,53.7-60C237.5,332.3,216.2,299.8,183.5,299.7z"/>
</g>
<g id="column1">
	<path class="st5" d="M101.4,290.3V170.1c-32.2,0-52.9,26.3-53.6,60.1C47.3,257.8,68.6,290.3,101.4,290.3z"/>
	<path class="st5" d="M106.8,170.1l-0.5,120.2c32.2,0.2,53-26.1,53.8-59.9C160.8,202.8,139.5,170.2,106.8,170.1z"/>
	<path class="st5" d="M48,45.1l0.3,120.2c32.2-0.1,52.9-26.5,53.4-60.3C102.2,77.4,80.7,45,48,45.1z"/>
	<path class="st5" d="M159.9,164.7l0.2-122.3c-33.1-0.1-54.5,26.6-55.2,61C104.4,131.5,126.3,164.6,159.9,164.7z"/>
	<path class="st5" d="M159.6,481.8L48.3,482c0,34.7,24.4,57.1,55.7,57.8C129.6,540.3,159.7,517.2,159.6,481.8z"/>
	<path class="st5" d="M48.3,476.9l111.4,0.4c0.1-34.7-24.2-57.2-55.5-58C78.5,418.6,48.4,441.6,48.3,476.9z"/>
	<path class="st5" d="M161.6,295.3L50.2,295c-0.1,34.7,24.3,57.2,55.6,58C131.4,353.6,161.5,330.6,161.6,295.3z"/>
	<path class="st5" d="M159.7,413.7l-111.4,1c-0.3-34.7,23.9-57.4,55.2-58.3C129.2,355.5,159.4,378.4,159.7,413.7z"/>
</g>
</svg>
