<?xml version="1.0" encoding="utf-8"?>
<!-- Generator: Adobe Illustrator 25.2.3, SVG Export Plug-In . SVG Version: 6.00 Build 0)  -->
<svg version="1.1" id="Layer_1" xmlns="http://www.w3.org/2000/svg" xmlns:xlink="http://www.w3.org/1999/xlink" x="0px" y="0px"
	 viewBox="0 0 614.3 578.7" style="enable-background:new 0 0 614.3 578.7;" xml:space="preserve">
<style type="text/css">
	.st0{display:none;}
	.st1{display:inline;fill:#E4E5E7;}
	.st2{fill:#AB8A08;}
	.st3{fill:#BA9D44;}
	.st4{fill:#CAB37A;}
	.st5{fill:#D6C9A8;}
</style>
<g id="background" class="st0">
	<rect x="-95.7" y="-100.7" class="st1" width="800" height="800"/>
</g>
<g id="column4">
	<path class="st2" d="M445.2,456.1L550,456c-0.2-31.6-23-52.1-52.5-52.7C473.4,402.8,445.2,423.9,445.2,456.1z"/>
	<path class="st2" d="M549.9,459L445,459.7c0.2,31.6,23.3,52.1,52.7,52.5C522,512.5,550.1,491.2,549.9,459z"/>
	<path class="st2" d="M493.8,282.3l-3-101.6c-32.6,0.8-53,23.6-52.8,52.3C438.1,256.3,460.6,283.1,493.8,282.3z"/>
	<path class="st2" d="M494.4,180.2l2.6,103.5c33.5-0.8,54.6-23.9,54.6-53.1C551.6,206.8,528.5,179.4,494.4,180.2z"/>
	<path class="st2" d="M545.3,294.5l0.9,109.8c-30.2,0.2-49.9-23.5-50.8-54.5C494.7,324.5,514.6,294.8,545.3,294.5z"/>
	<path class="st2" d="M441.5,295.4l-0.2,109.8c30.2,0.2,49.8-23.9,50.4-54.8C492.5,325.1,472.4,295.4,441.5,295.4z"/>
	<path class="st2" d="M547.2,169.8l-104.8,1c-0.2-31.6,22.5-52.4,51.9-53.3C518.4,116.8,546.8,137.7,547.2,169.8z"/>
	<path class="st2" d="M547.2,61.8l-104.8-0.2c-0.2,31.6,22.9,52.3,52.3,52.9C518.7,114.9,547,94,547.2,61.8z"/>
</g>
<g id="column3">
	<path class="st3" d="M317.5,408.6l-0.2,109.8c30.2,0.2,49.8-23.9,50.4-54.8C368.3,438.4,348.3,408.6,317.5,408.6z"/>
	<path class="st3" d="M312.8,295.8l106.5-0.4c-0.2-32.6-23.5-53.5-53.4-54.3C341.4,240.7,312.7,262.6,312.8,295.8z"/>
	<path class="st3" d="M422.6,356.8l-104.8,0.9c0.2,31.6,23.3,52,52.8,52.4C394.8,410.6,423,389.3,422.6,356.8z"/>
	<path class="st3" d="M317.6,354.3l106.5-0.6c-0.2-32.6-23.5-53.5-53.6-53.9C346,299.3,317.5,321.1,317.6,354.3z"/>
	<path class="st3" d="M419.1,186l-104.7,1.2c0.2,31.6,23.4,52,52.8,52.3C391.4,239.6,419.4,218.1,419.1,186z"/>
	<path class="st3" d="M421,175.1V63.3c-31.2,0-51.1,24.4-51.7,56C368.7,144.9,389.4,175.1,421,175.1z"/>
	<path class="st3" d="M315.5,64.3l0.6,109.8c30.2-0.2,49.7-24.4,50.1-55.3C366.5,93.7,346.2,64.1,315.5,64.3z"/>
	<path class="st3" d="M420.5,407.9l0.9,109.8c-30.2,0.2-49.9-23.5-50.8-54.5C369.9,438,389.8,408.2,420.5,407.9z"/>
</g>
<g id="column2">
	<path class="st4" d="M294.1,239.4l-104.8,0.4c0.2,31.6,23,52.1,52.5,52.7C265.8,292.9,294.1,271.6,294.1,239.4z"/>
	<path class="st4" d="M189,236.1h106.5c0-32.6-23.3-53.5-53.2-54.4C217.8,181.4,189,203.1,189,236.1z"/>
	<path class="st4" d="M244.5,408.7l1.5,101.6c32.6-0.4,53.4-23,53.7-51.4C299.7,435.5,277.6,408.3,244.5,408.7z"/>
	<path class="st4" d="M242.2,510.8l-1.1-103.5c-33.5,0.2-55,23.1-55.4,52.3C185.5,483.3,208.1,511.1,242.2,510.8z"/>
	<path class="st4" d="M295.1,171.3l-104.8,0.9c-0.2-31.6,22.5-52.4,51.9-53.3C266.2,118.2,294.8,139,295.1,171.3z"/>
	<path class="st4" d="M296.7,63.1L192,62.8c-0.2,31.6,22.9,52.3,52.3,52.9C268.3,116.4,296.7,95.4,296.7,63.1z"/>
	<path class="st4" d="M293.5,295.4l0.9,109.8c-30.2,0.2-49.9-23.5-50.8-54.5C242.9,325.5,262.8,295.6,293.5,295.4z"/>
	<path class="st4" d="M190.4,295.4l-0.2,109.8c30.2,0.2,49.8-23.9,50.4-54.8C241.1,325.2,221.2,295.6,190.4,295.4z"/>
</g>
<g id="column1">
	<path class="st5" d="M113.2,286.9V177.1c-30.3,0-49.7,24-50.5,54.8C62.2,257.2,82.4,286.9,113.2,286.9z"/>
	<path class="st5" d="M118.3,177.1l-0.5,109.8c30.2,0.2,49.8-23.9,50.6-54.8C169,206.9,149,177.1,118.3,177.1z"/>
	<path class="st5" d="M62.9,62.8l0.2,109.8c30.2-0.2,49.7-24.2,50.2-55C113.9,92.3,93.7,62.7,62.9,62.8z"/>
	<path class="st5" d="M168.1,172.1l0.1-111.8c-31.1-0.2-51.2,24.3-51.9,55.6C116,141.8,136.5,171.9,168.1,172.1z"/>
	<path class="st5" d="M167.9,461.8l-104.8,0.2c0,31.6,22.9,52.1,52.4,52.8C139.7,515.2,168,494.1,167.9,461.8z"/>
	<path class="st5" d="M63.1,457.3l104.8,0.4c0.2-31.6-22.8-52.3-52.1-52.9C91.7,404,63.3,425,63.1,457.3z"/>
	<path class="st5" d="M169.8,291.4L65,291.2c-0.2,31.6,22.9,52.3,52.3,52.9C141.3,344.7,169.7,323.6,169.8,291.4z"/>
	<path class="st5" d="M168,399.5l-104.8,1c-0.2-31.6,22.5-52.4,51.9-53.3C139.3,346.4,167.7,367.3,168,399.5z"/>
</g>
</svg>
