<?xml version="1.0" encoding="utf-8"?>
<!-- Generator: Adobe Illustrator 25.2.3, SVG Export Plug-In . SVG Version: 6.00 Build 0)  -->
<svg version="1.1" id="Layer_1" xmlns="http://www.w3.org/2000/svg" xmlns:xlink="http://www.w3.org/1999/xlink" x="0px" y="0px"
	 viewBox="0 0 1017.1 486.7" style="enable-background:new 0 0 1017.1 486.7;" xml:space="preserve">
<style type="text/css">
	.st0{display:none;fill:#D8D5DB;}
	.st1{fill:none;stroke:#8B2626;stroke-width:85;stroke-miterlimit:10;}
	.st2{fill:none;stroke:#BE2C47;stroke-width:85;stroke-miterlimit:10;}
	.st3{fill:#FBF2F0;}
	.st4{fill:#8B2626;}
	.st5{fill:none;stroke:#FBF2F0;stroke-width:85;stroke-miterlimit:10;}
	.st6{fill:none;stroke:#BE4C34;stroke-width:85;stroke-miterlimit:10;}
	.st7{fill:none;stroke:#BB2B45;stroke-width:85;stroke-miterlimit:10;}
</style>
<g id="Layer_1_1_">
	<rect x="-568.7" y="-340.1" class="st0" width="1920" height="1080"/>
</g>
<g id="Layer_2_1_">
	<path class="st1" d="M567.3,88.4c-44.5-2.4-95.3,1.2-138.4,12.8c-31.1,8.7-59.2,20.4-88.3,35.2c-60.3,32.4-106.7,75-147.3,132.6
		c-4.1,7-20.4,34-24.4,42.8c-27.2,60.4-46.1,120.6-49.6,186"/>
	<path class="st2" d="M564.5,172.1c-64.3-1.6-138.3,7-196.6,42.4c-19.1,10.8-36.2,22.7-52.4,39.5c-2,2-6,2.9-8,4.9
		c-65.6,64.4-107.4,149-110.5,238.7"/>
	<path class="st3" d="M570,217.8c0.7,38.3-3,265.5-3.8,283.4l-341.9-3.3c2.5-49.3,17.8-96.6,47-140.3c4.7-8,9.4-15.2,16-22.3
		c6.6-8.9,14.1-16,20.7-24.9c6.6-7.1,14.1-12.4,20.6-19.6c0.9-0.9,2.8-0.9,3.7-1.8c65.6-57.1,152.5-82.2,237.7-73.6
		C570,216.3,570,217,570,217.8z"/>
</g>
<g id="Layer_3">
	<path class="st4" d="M564.4,217.8c-1.4,38.2-2.1,265.5-1.6,283.4l331.4,3.1c-1.5-49.3-15.5-97-42.9-141.2
		c-4.4-8.1-8.9-15.3-15.1-22.6c-6.2-9-13.4-16.3-19.6-25.3c-6.2-7.2-13.4-12.7-19.6-19.9c-0.9-0.9-2.7-0.9-3.6-1.8
		c-62.4-58.3-146.2-85-228.9-78.1C564.4,216.2,564.4,217,564.4,217.8z"/>
	<path class="st5" d="M564.5,169.9c68.4,0.7,117.6,11.6,175.3,48.2c18.9,11.2,35.8,23.3,51.6,40.5c2,2,6,3.1,8,5.1
		c64.4,65.6,104.6,151,106,240.8"/>
	<path class="st2" d="M565.3,86.4c46.9,0.6,72.7,4.7,115.6,17.1c30.9,9.3,58.6,22,87.7,36.8C882.3,198.5,927.3,297.6,936.8,319
		c18.6,41.9,43.8,121.4,46,186.9"/>
</g>
<g id="Layer_4">
	<path class="st3" d="M1020.2,286.2c1-39,0.6-270.5,0.1-288.7L720.2-3.7c1.6,50.2,14.4,98.7,39.5,143.6c4,8.2,8.1,15.6,13.8,22.9
		c5.7,9.2,12.2,16.5,17.8,25.7c5.7,7.3,12.2,12.9,17.9,20.2c0.8,0.9,2.4,0.9,3.3,1.8c56.8,59,132.8,85.7,207.7,78.1
		C1020.2,287.8,1020.2,287,1020.2,286.2z"/>
	<path class="st6" d="M1026.2,328.7c-68.4-0.3-117.7-11-175.6-47.2c-19-11.1-57.8-43.2-59.8-45.2C726.1,171,685.4,85.9,683.5-3.9"/>
	<path class="st7" d="M1025.9,412.3c-46.9-0.3-72.7-4.3-115.7-16.5c-31-9.1-58.7-21.7-87.9-36.3C708.2,301.9,662.6,203.1,653,181.7
		C634.2,140,608.5,60.6,606-4.9"/>
</g>
</svg>
