<?xml version="1.0" encoding="utf-8"?>
<!-- Generator: Adobe Illustrator 25.2.3, SVG Export Plug-In . SVG Version: 6.00 Build 0)  -->
<svg version="1.1" id="Layer_1" xmlns="http://www.w3.org/2000/svg" xmlns:xlink="http://www.w3.org/1999/xlink" x="0px" y="0px"
	 viewBox="0 0 552.5 138.5" style="enable-background:new 0 0 552.5 138.5;" xml:space="preserve">
<style type="text/css">
	.st0{fill:#D6C9A8;}
	.st1{fill:#AB8A08;}
	.st2{fill:#BA9D44;}
	.st3{fill:#CAB37A;}
</style>
<g id="column1">
	<path class="st0" d="M32,17.3l0.2,109.8c30.2-0.2,49.7-24.2,50.2-55C83,46.8,62.8,17.2,32,17.3z"/>
	<path class="st0" d="M137.2,126.6l0.1-111.8c-31.1-0.2-51.2,24.3-51.9,55.6C85.1,96.3,105.6,126.4,137.2,126.6z"/>
	<path class="st1" d="M516.3,124.3l-104.8,1C411.2,93.7,434,72.9,463.4,72C487.5,71.3,515.9,92.2,516.3,124.3z"/>
	<path class="st1" d="M516.3,16.3L411.5,16c-0.2,31.6,22.9,52.3,52.3,52.9C487.8,69.4,516.1,48.5,516.3,16.3z"/>
	<path class="st2" d="M390.1,129.6V17.8c-31.2,0-51.1,24.4-51.7,56C337.8,99.4,358.5,129.6,390.1,129.6z"/>
	<path class="st2" d="M284.6,18.8l0.6,109.8c30.2-0.2,49.7-24.4,50.1-55.3C335.6,48.2,315.3,18.6,284.6,18.8z"/>
	<path class="st3" d="M264.2,125.8l-104.8,0.9c-0.2-31.6,22.5-52.4,51.9-53.3C235.4,72.7,263.9,93.4,264.2,125.8z"/>
	<path class="st3" d="M265.8,17.6l-104.8-0.2c-0.2,31.6,22.9,52.3,52.3,52.9C237.4,70.9,265.8,49.9,265.8,17.6z"/>
</g>
</svg>
