<?xml version="1.0" encoding="utf-8"?>
<!-- Generator: Adobe Illustrator 25.2.1, SVG Export Plug-In . SVG Version: 6.00 Build 0)  -->
<svg version="1.1" id="Layer_1" xmlns="http://www.w3.org/2000/svg" xmlns:xlink="http://www.w3.org/1999/xlink" x="0px" y="0px"
	 viewBox="0 0 90 81.1" style="enable-background:new 0 0 90 81.1;" xml:space="preserve">
<style type="text/css">
	.st0{fill:#FFFFFF;}
	.st1{fill:none;stroke:#000000;stroke-width:5;stroke-miterlimit:10;}
</style>
<g>
	<circle class="st0" cx="44.3" cy="23.6" r="10"/>
	<path d="M44.3,16.1c4.1,0,7.5,3.4,7.5,7.5c0,4.1-3.4,7.5-7.5,7.5c-4.1,0-7.5-3.4-7.5-7.5C36.8,19.4,40.2,16.1,44.3,16.1 M44.3,11.1
		c-6.9,0-12.5,5.6-12.5,12.5c0,6.9,5.6,12.5,12.5,12.5c6.9,0,12.5-5.6,12.5-12.5C56.9,16.7,51.3,11.1,44.3,11.1L44.3,11.1z"/>
</g>
<path class="st1" d="M14.6,69.3l0-2.7c-0.1-13.8,9.6-24.9,21.5-24.9h15.3c13.2,0,24,12.3,24.1,27.6l0,0"/>
</svg>
