<?xml version="1.0" encoding="utf-8"?>
<!-- Generator: Adobe Illustrator 25.2.1, SVG Export Plug-In . SVG Version: 6.00 Build 0)  -->
<svg version="1.1" id="Layer_1" xmlns="http://www.w3.org/2000/svg" xmlns:xlink="http://www.w3.org/1999/xlink" x="0px" y="0px"
	 viewBox="0 0 106 99.3" style="enable-background:new 0 0 106 99.3;" xml:space="preserve">
<style type="text/css">
	.st0{fill:none;}
	.st1{fill:none;stroke:#000000;stroke-width:5;stroke-miterlimit:10;}
</style>
<g>
	<path class="st0" d="M44.5,76.5c-15,0-28.1-10.2-31.9-24.7C8,34.2,18.6,16.2,36.2,11.6c2.7-0.7,5.5-1.1,8.3-1.1
		c15,0,28.1,10.2,31.9,24.7c4.6,17.6-6.1,35.6-23.7,40.2C50,76.2,47.3,76.5,44.5,76.5z"/>
	<path d="M44.5,8v5c13.9,0,26,9.4,29.5,22.9c2,7.9,0.9,16.1-3.2,23.1C66.6,66,60,71,52.1,73c-2.5,0.7-5.1,1-7.7,1
		c-13.9,0-26-9.4-29.5-22.9c-2-7.9-0.9-16.1,3.2-23.1c4.1-7,10.7-12,18.6-14c2.5-0.7,5.1-1,7.7-1L44.5,8 M44.5,8
		c-2.9,0-5.9,0.4-8.9,1.1c-19,4.9-30.4,24.3-25.5,43.2C14.3,68.4,28.7,79,44.5,79c2.9,0,5.9-0.4,8.9-1.1c19-4.9,30.4-24.3,25.5-43.2
		C74.7,18.6,60.3,8,44.5,8L44.5,8z"/>
</g>
<g>
	<line class="st1" x1="69.8" y1="66.1" x2="90.1" y2="83.2"/>
</g>
</svg>
