<?xml version="1.0" encoding="utf-8"?>
<!-- Generator: Adobe Illustrator 25.2.3, SVG Export Plug-In . SVG Version: 6.00 Build 0)  -->
<svg version="1.1" id="Layer_1" xmlns="http://www.w3.org/2000/svg" xmlns:xlink="http://www.w3.org/1999/xlink" x="0px" y="0px"
	 viewBox="0 0 1080 1920" style="enable-background:new 0 0 1080 1920;" xml:space="preserve">
<style type="text/css">
	.st0{fill:#D6C9A8;}
</style>
<g id="column2">
	<path class="st0" d="M705.7,807.5l-338.1,1.2c0.3,102.1,74.4,168,169.4,169.7C614.7,979.6,705.7,911.3,705.7,807.5z"/>
	<path class="st0" d="M366.7,797.2h343.9c0-105-75-172.7-171.8-175C459.9,620.7,366.7,690.4,366.7,797.2z"/>
	<path class="st0" d="M545.8,1352.5l4.6,327.4c105.3-1.2,172.4-73.8,173.3-165.9C724.2,1439,652.9,1351.4,545.8,1352.5z"/>
	<path class="st0" d="M538.8,1681.1l-3.6-333.3c-108.4,0.9-177.6,74.4-178.8,168.3C355.5,1592.9,428.3,1682.3,538.8,1681.1z"/>
	<path class="st0" d="M709.1,588L370.9,591c-0.9-102.1,72.5-168.8,167.5-171.5C616.2,417.1,708.2,484.2,709.1,588z"/>
	<path class="st0" d="M714.5,239.8l-338.1-0.9c-0.3,102.1,73.8,168.3,168.8,170.6C622.9,411.6,714.2,343.9,714.5,239.8z"/>
	<path class="st0" d="M703.9,987.8l2.7,353.6c-97.7,0.9-161.2-75.9-163.9-175.3C540.6,1084.6,604.7,988.7,703.9,987.8z"/>
	<path class="st0" d="M371.2,987.8l-0.6,353.6c97.7,0.3,160.9-77.1,163-176.5C535.1,1083.7,470.5,988.1,371.2,987.8z"/>
</g>
</svg>
