<?xml version="1.0" encoding="utf-8"?>
<!-- Generator: Adobe Illustrator 25.2.3, SVG Export Plug-In . SVG Version: 6.00 Build 0)  -->
<svg version="1.1" id="_x31__px" xmlns="http://www.w3.org/2000/svg" xmlns:xlink="http://www.w3.org/1999/xlink" x="0px" y="0px"
	 viewBox="0 0 512 512" style="enable-background:new 0 0 512 512;" xml:space="preserve">
<path d="M405.1,460.7H98.3c-9.6,0-18.8-4-25.1-10.9c-6.4-6.9-9.3-16.1-8-25.2l40.9-292.5c2.2-15.8,16.5-27.7,33.1-27.7h225
	c16.7,0,30.9,11.9,33.2,27.7l40.9,292.5c1.3,9.1-1.7,18.3-8,25.2C423.9,456.8,414.8,460.7,405.1,460.7z M139.3,123.3
	c-6.9,0-12.7,4.9-13.6,11.4L84.7,427.1c-0.5,3.8,0.6,7.5,3.3,10.4c2.7,2.9,6.3,4.5,10.3,4.5h306.8c4,0,7.7-1.6,10.3-4.5
	c2.7-2.9,3.8-6.6,3.3-10.4l-40.9-292.5c-0.9-6.5-6.8-11.4-13.6-11.4L139.3,123.3z"/>
<path d="M300.9,160.8c-5.4,0-9.8-4.2-9.8-9.4V67.1c0-20.7-17.6-37.5-39.3-37.5s-39.3,16.8-39.3,37.5v84.4c0,5.2-4.4,9.4-9.8,9.4
	c-5.4,0-9.8-4.2-9.8-9.4V67.1c0-31,26.5-56.2,59-56.2s59,25.2,59,56.2v84.4C310.7,156.6,306.3,160.8,300.9,160.8z"/>
</svg>
