<?xml version="1.0" standalone="no"?>
<!DOCTYPE svg PUBLIC "-//W3C//DTD SVG 20010904//EN"
 "http://www.w3.org/TR/2001/REC-SVG-20010904/DTD/svg10.dtd">
<svg version="1.0" xmlns="http://www.w3.org/2000/svg"
 width="682.000000pt" height="682.000000pt" viewBox="0 0 682.000000 682.000000"
 preserveAspectRatio="xMidYMid meet">
<metadata>
Created by potrace 1.11, written by Peter Selinger 2001-2013
</metadata>
<g transform="translate(0.000000,682.000000) scale(0.100000,-0.100000)"
fill="#000000" stroke="none">
<path d="M3147 6304 c-2 -3 -31 -7 -63 -10 -32 -2 -70 -7 -84 -9 -14 -3 -45
-7 -70 -10 -25 -3 -56 -8 -70 -11 -14 -3 -36 -8 -50 -10 -14 -2 -36 -7 -50
-10 -14 -3 -32 -7 -41 -9 -8 -2 -39 -10 -67 -19 -29 -8 -55 -15 -57 -15 -13 1
-158 -47 -251 -82 -185 -70 -314 -133 -504 -247 -88 -53 -254 -171 -258 -183
-2 -5 -10 -9 -18 -9 -8 0 -14 -4 -14 -8 0 -4 -23 -25 -50 -46 -62 -47 -260
-240 -325 -316 -26 -30 -58 -67 -70 -81 -13 -15 -47 -60 -76 -100 -29 -41 -56
-76 -59 -79 -3 -3 -35 -52 -71 -110 -157 -251 -259 -479 -339 -753 -16 -54
-31 -111 -34 -125 -3 -15 -14 -70 -26 -122 -11 -52 -23 -115 -26 -140 -2 -25
-7 -61 -9 -80 -24 -174 -24 -532 -1 -700 5 -34 17 -120 21 -145 4 -22 32 -159
40 -190 3 -11 7 -29 9 -40 3 -11 16 -58 30 -105 118 -397 324 -776 589 -1085
76 -87 269 -280 334 -331 26 -21 53 -43 58 -49 10 -11 133 -102 163 -120 9 -6
51 -33 92 -60 123 -82 289 -169 440 -232 47 -19 94 -39 105 -44 11 -5 65 -22
120 -40 120 -37 124 -38 130 -39 3 -1 19 -6 37 -11 18 -6 42 -12 53 -14 11 -3
34 -8 50 -12 17 -4 35 -8 40 -9 6 -1 12 -3 15 -4 3 -1 16 -3 30 -5 14 -2 63
-10 110 -18 47 -8 92 -15 100 -16 8 0 40 -3 70 -8 114 -16 556 -8 656 11 12 2
45 7 74 11 62 8 70 9 170 31 89 19 155 36 230 59 30 10 60 18 65 19 13 2 49
16 190 71 131 52 406 191 450 228 6 5 40 28 77 51 76 48 104 68 158 111 95 76
126 101 142 117 10 10 18 16 18 13 0 -15 286 285 351 370 13 17 27 35 32 40
67 80 234 345 283 448 14 29 29 59 34 67 5 8 21 42 35 75 15 33 30 69 36 80
13 29 79 209 79 217 0 4 5 19 11 35 7 15 13 35 14 43 2 8 10 42 19 74 9 33 18
69 21 80 2 12 4 22 6 24 2 3 4 10 14 67 4 28 9 55 11 60 7 32 14 77 19 125 3
30 8 62 10 70 8 29 18 216 18 340 0 169 -16 353 -43 495 -27 141 -30 158 -36
177 -3 9 -7 25 -9 35 -17 79 -83 285 -110 348 -8 17 -26 59 -40 95 -32 76
-101 216 -139 280 -15 25 -29 53 -33 63 -3 9 -9 17 -14 17 -5 0 -9 5 -9 10 0
9 -106 173 -132 205 -5 5 -22 28 -38 50 -142 188 -320 368 -520 526 -108 85
-290 209 -308 209 -7 0 -12 5 -12 10 0 6 -4 10 -8 10 -4 0 -53 25 -107 55
-166 91 -530 234 -637 249 -10 1 -21 5 -24 9 -4 4 -19 7 -34 7 -15 0 -30 3
-34 7 -3 4 -14 8 -24 8 -9 1 -33 5 -52 8 -87 16 -200 34 -270 43 -53 7 -537
14 -543 8z m508 -207 c17 -2 57 -8 90 -12 32 -4 67 -8 76 -10 9 -2 32 -6 50
-9 35 -6 65 -12 109 -21 14 -3 34 -7 45 -9 11 -2 34 -9 50 -16 17 -6 30 -11
30 -10 0 3 87 -20 105 -27 8 -3 20 -7 25 -8 22 -6 131 -47 147 -56 10 -5 22
-9 26 -9 5 0 40 -14 78 -32 38 -17 71 -32 74 -33 7 -1 82 -40 150 -78 408
-225 760 -561 1011 -967 48 -78 179 -330 179 -345 0 -4 7 -22 15 -41 8 -19 21
-49 29 -66 18 -44 73 -212 86 -265 5 -24 15 -61 20 -83 6 -22 13 -57 16 -78 3
-20 8 -40 10 -43 2 -4 6 -28 9 -55 4 -26 8 -51 10 -55 3 -3 7 -37 10 -75 3
-38 8 -98 11 -134 8 -92 8 -312 -1 -395 -3 -38 -8 -88 -10 -110 -1 -22 -4 -40
-5 -40 -1 0 -3 -16 -5 -36 -1 -20 -6 -51 -10 -70 -5 -19 -9 -43 -11 -54 -5
-38 -15 -88 -19 -95 -2 -4 -7 -21 -10 -38 -20 -118 -121 -395 -205 -563 -98
-197 -256 -441 -356 -549 -13 -14 -49 -54 -81 -89 -92 -101 -230 -231 -325
-304 -77 -59 -140 -104 -186 -134 -64 -41 -269 -162 -280 -164 -4 -1 -43 -19
-88 -39 -144 -67 -425 -163 -544 -185 -281 -53 -345 -60 -595 -60 -179 0 -318
8 -379 21 -12 3 -37 7 -56 10 -19 2 -42 6 -50 7 -8 2 -33 7 -55 11 -131 25
-408 108 -472 141 -15 8 -33 15 -39 15 -30 0 -429 214 -489 262 -5 5 -50 38
-99 74 -49 36 -99 74 -110 84 -12 11 -43 39 -71 62 -65 56 -175 168 -250 253
-64 72 -213 270 -223 295 -3 8 -9 17 -12 20 -26 18 -196 347 -237 455 -8 22
-19 49 -24 60 -47 106 -118 383 -145 568 -2 15 -6 42 -9 60 -24 155 -24 553 0
676 2 12 7 44 10 70 11 74 12 80 39 201 79 349 228 681 440 980 182 257 428
499 676 665 41 28 77 53 80 56 3 3 26 17 51 31 79 44 94 53 99 58 7 7 122 63
195 95 33 15 75 33 93 42 42 18 151 57 257 89 102 31 230 61 340 78 92 14 114
17 158 20 27 3 51 6 53 9 6 5 461 1 499 -6z"/>
<path d="M1797 4953 c-7 -14 -2 -3161 5 -3169 5 -4 102 -8 217 -8 179 -1 210
1 213 14 2 8 3 390 3 848 -1 832 -1 833 19 837 12 2 226 3 476 2 l455 -2 2
-844 c2 -464 5 -847 8 -849 4 -4 309 -6 407 -3 l27 1 0 803 c0 441 0 823 1
848 l0 46 478 -1 477 -1 0 -843 c0 -621 3 -845 12 -850 8 -5 363 -8 418 -3 11
1 13 1776 2 1816 -9 35 -41 99 -67 135 -50 72 -118 121 -222 162 -51 21 -72
22 -572 24 -285 2 -521 5 -523 8 -3 2 -5 237 -4 520 l0 516 -220 -2 -220 -3 1
-517 0 -518 -52 -1 c-314 -3 -891 1 -896 6 -4 4 -8 230 -8 503 -1 274 -2 505
-3 515 -1 16 -18 17 -215 17 -118 0 -217 -3 -219 -7z"/>
</g>
</svg>
